<?xml version="1.0" encoding="utf-8"?>
<!-- Generator: Adobe Illustrator 26.5.0, SVG Export Plug-In . SVG Version: 6.00 Build 0)  -->
<svg version="1.1" id="圖層_1" xmlns="http://www.w3.org/2000/svg" xmlns:xlink="http://www.w3.org/1999/xlink" x="0px" y="0px"
	 viewBox="0 0 41.5 40.1" style="enable-background:new 0 0 41.5 40.1;" xml:space="preserve">
<style type="text/css">
	.st0{fill:none;stroke:#FFFFFF;stroke-width:2;stroke-miterlimit:10;}
	.st1{fill:none;stroke:#FFFFFF;stroke-width:2;stroke-linecap:round;stroke-miterlimit:10;}
</style>
<circle class="st0" cx="20.8" cy="20" r="18.7"/>
<path class="st0" d="M27.1,9.7l3.1,8.4c0.2,0.4-0.1,0.7-0.3,0.9c-1,1.2-2.2,2.2-3.6,2.8c-2.1,0.7-3.5-0.5-6,0.4
	c-1.8,0.6-3.3,2.1-4.5,3.5c-0.1,0.2-0.2,0.2-0.3,0.3c-0.4,0.1-0.8-0.1-1-0.5l-3-8.2c-0.1-0.3,0-0.5,0.1-0.8c0.2-0.2,0.4-0.6,0.7-0.8
	c1.2-1.2,2.6-2.5,4.2-3.1c1.8-0.6,3.3-0.6,5.1-0.4c0.3,0,0.7,0,1.1-0.1c1.8-0.6,3.1-2.7,3.6-2.9C26.5,9.1,26.9,9.3,27.1,9.7
	L27.1,9.7z"/>
<line class="st1" x1="14.4" y1="25.5" x2="17" y2="32.8"/>
</svg>
