<?xml version="1.0" encoding="utf-8"?>
<!-- Generator: Adobe Illustrator 13.0.0, SVG Export Plug-In . SVG Version: 6.00 Build 14948)  -->
<!DOCTYPE svg PUBLIC "-//W3C//DTD SVG 1.1//EN" "http://www.w3.org/Graphics/SVG/1.1/DTD/svg11.dtd">
<svg version="1.1" id="圖層_1" xmlns="http://www.w3.org/2000/svg" xmlns:xlink="http://www.w3.org/1999/xlink" x="0px" y="0px"
	 width="26.9px" height="30.031px" viewBox="0 0 26.9 30.031" enable-background="new 0 0 26.9 30.031" xml:space="preserve">
<g id="圖層_1_1_">
	<g>
		<g>
			<g>
				<g>
					<g>
						<g>
							<defs>
								<rect id="SVGID_1_" x="4.659" y="4.969" width="17.997" height="20.092"/>
							</defs>
							<clipPath id="SVGID_2_">
								<use xlink:href="#SVGID_1_"  overflow="visible"/>
							</clipPath>
							<path clip-path="url(#SVGID_2_)" fill="#005E96" d="M19.625,23.034c-0.563,0.355-0.877,0.866-0.704,1.14
								c0.177,0.276,0.77,0.21,1.333-0.144c0.562-0.354,0.875-0.865,0.702-1.14C20.782,22.616,20.186,22.68,19.625,23.034"/>
						</g>
					</g>
				</g>
			</g>
		</g>
		<g>
			<g>
				<g>
					<g>
						<g>
							<defs>
								<rect id="SVGID_3_" x="4.659" y="4.969" width="17.997" height="20.092"/>
							</defs>
							<clipPath id="SVGID_4_">
								<use xlink:href="#SVGID_3_"  overflow="visible"/>
							</clipPath>
							<path clip-path="url(#SVGID_4_)" fill="#005E96" d="M20.347,9.356c-0.266-0.27-0.567-0.477-0.88-0.675
								c-0.075-0.047-0.151-0.095-0.23-0.143c-0.08-0.046-0.161-0.094-0.242-0.139c-0.082-0.045-0.163-0.089-0.252-0.129
								c-0.087-0.042-0.182-0.078-0.271-0.108c-0.094-0.031-0.152-0.052-0.218-0.094l-0.051-0.032L18.153,8
								c-0.035-0.025-0.068-0.052-0.102-0.08c-0.138-0.112-0.275-0.236-0.412-0.358c-0.275-0.248-0.54-0.498-0.767-0.773
								c-0.116-0.139-0.217-0.285-0.318-0.438c-0.1-0.152-0.186-0.318-0.312-0.489c-0.036-0.042-0.07-0.084-0.107-0.123
								c-0.041-0.038-0.079-0.079-0.123-0.112c-0.046-0.031-0.093-0.066-0.138-0.092l-0.143-0.074
								c-0.094-0.036-0.187-0.075-0.281-0.101c0.357-0.172,1.085-0.437,1.72-0.158c0.885,0.388,0.726,1.23,1.647,1.878
								c0.922,0.647,1.345,0.303,1.771,1.341c0.289,0.708,0.168,1.143,0.061,1.349C20.568,9.619,20.467,9.477,20.347,9.356"/>
						</g>
					</g>
				</g>
			</g>
		</g>
		<g>
			<g>
				<g>
					<g>
						<g>
							<defs>
								<rect id="SVGID_5_" x="4.659" y="4.969" width="17.997" height="20.092"/>
							</defs>
							<clipPath id="SVGID_6_">
								<use xlink:href="#SVGID_5_"  overflow="visible"/>
							</clipPath>
							<path clip-path="url(#SVGID_6_)" fill="#005E96" d="M5.85,12.143c0.007,0.046,0.014,0.091,0.024,0.136
								c0.008,0.045,0.017,0.092,0.019,0.134c0.009,0.084,0.018,0.17,0.018,0.261c0.004,0.179-0.014,0.356-0.052,0.538
								C5.84,13.306,5.82,13.4,5.8,13.497c-0.018,0.101-0.039,0.207-0.033,0.327C5.764,13.881,5.78,13.94,5.788,14
								c0.003,0.03,0.019,0.058,0.027,0.086c0.01,0.028,0.019,0.058,0.032,0.084c0.029,0.05,0.054,0.103,0.084,0.151
								c0.035,0.044,0.067,0.09,0.102,0.135c0.037,0.039,0.072,0.079,0.111,0.118l0.013,0.015l0.007,0.007
								c0-0.001,0.015,0.015,0-0.001l0.025,0.029l0.049,0.058l0.069,0.104l0.072,0.124c0.09,0.172,0.178,0.355,0.262,0.543
								c0.165,0.376,0.333,0.757,0.502,1.142c0.344,0.772,0.713,1.552,1.138,2.304c0.428,0.749,0.906,1.472,1.437,2.138
								c0.235,0.293,0.483,0.575,0.739,0.844c-1.102-0.475-2.203-1.346-2.326-1.796c-0.138-0.502-0.769-1.334-1.676-1.76
								c-0.908-0.424-0.635-0.803-0.723-1.669c-0.086-0.868-0.731-1.077-0.994-1.794c-0.262-0.719,0.209-1.398,0.039-2.314
								c-0.135-0.732,0.692-0.677,1.03-0.625C5.823,11.992,5.836,12.067,5.85,12.143"/>
						</g>
					</g>
				</g>
			</g>
		</g>
		<g>
			<g>
				<g>
					<g>
						<g>
							<defs>
								<rect id="SVGID_7_" x="4.659" y="4.969" width="17.997" height="20.092"/>
							</defs>
							<clipPath id="SVGID_8_">
								<use xlink:href="#SVGID_7_"  overflow="visible"/>
							</clipPath>
							<path clip-path="url(#SVGID_8_)" fill="#005E96" d="M16.805,23.124c-0.009-0.005-0.019-0.013-0.025-0.018l-0.006-0.002
								c0,0-0.013-0.009-0.03-0.019c-0.017-0.012-0.043-0.027-0.08-0.052c-0.071-0.048-0.173-0.118-0.291-0.212
								c-0.028-0.023-0.059-0.049-0.093-0.072c-0.029-0.024-0.061-0.053-0.094-0.083c-0.068-0.053-0.131-0.117-0.202-0.181
								c-0.067-0.067-0.137-0.133-0.206-0.207c-0.065-0.074-0.136-0.148-0.197-0.226c-0.033-0.04-0.063-0.078-0.095-0.118
								c-0.032-0.039-0.062-0.08-0.092-0.121c-0.028-0.04-0.058-0.077-0.084-0.118c-0.027-0.04-0.053-0.08-0.079-0.121
								c-0.025-0.04-0.05-0.079-0.074-0.117c-0.022-0.041-0.042-0.08-0.065-0.116c-0.019-0.04-0.041-0.077-0.06-0.113
								c-0.019-0.035-0.034-0.071-0.049-0.105c-0.034-0.07-0.061-0.133-0.088-0.188c-0.02-0.059-0.038-0.109-0.053-0.153
								c-0.031-0.082-0.048-0.128-0.048-0.128l-0.004-0.011c-0.019-0.057-0.082-0.084-0.137-0.065s-0.084,0.076-0.069,0.13
								c0,0,0.015,0.052,0.038,0.143c0.014,0.044,0.026,0.099,0.043,0.166c0.019,0.06,0.044,0.13,0.071,0.205
								c0.015,0.04,0.025,0.079,0.043,0.122c0.017,0.038,0.036,0.08,0.051,0.124c0.02,0.043,0.039,0.085,0.059,0.13
								c0.019,0.043,0.043,0.089,0.068,0.133c0.02,0.047,0.044,0.091,0.069,0.135c0.024,0.046,0.052,0.092,0.08,0.138
								c0.026,0.045,0.055,0.092,0.084,0.137c0.029,0.042,0.061,0.09,0.09,0.135c0.057,0.091,0.126,0.175,0.188,0.261
								c0.062,0.082,0.126,0.156,0.186,0.231c-0.209-0.107-0.421-0.222-0.638-0.346c-0.384-0.219-0.775-0.466-1.174-0.731
								c0.012-0.063,0.003-0.132-0.033-0.191c-0.005-0.008-0.01-0.016-0.014-0.021l-0.003-0.003c0,0-0.043-0.058-0.112-0.155
								c-0.072-0.098-0.169-0.244-0.287-0.42c-0.116-0.178-0.25-0.383-0.385-0.608c-0.034-0.057-0.07-0.116-0.104-0.174
								c-0.034-0.059-0.067-0.12-0.104-0.178c-0.07-0.119-0.135-0.244-0.204-0.367c-0.067-0.123-0.128-0.25-0.191-0.374
								c-0.062-0.124-0.119-0.247-0.176-0.365c-0.051-0.122-0.102-0.237-0.15-0.351c-0.041-0.111-0.083-0.217-0.119-0.317
								c-0.035-0.098-0.06-0.188-0.086-0.271c-0.027-0.081-0.041-0.152-0.057-0.211c-0.029-0.116-0.044-0.187-0.044-0.187
								l-0.002-0.007c-0.015-0.058-0.072-0.094-0.131-0.08c-0.055,0.014-0.091,0.067-0.082,0.122c0,0,0.012,0.072,0.033,0.2
								c0.013,0.061,0.021,0.142,0.045,0.225c0.021,0.086,0.043,0.182,0.071,0.289c0.032,0.104,0.066,0.217,0.101,0.336
								c0.042,0.118,0.084,0.241,0.127,0.371c0.05,0.125,0.1,0.255,0.154,0.387c0.056,0.13,0.11,0.267,0.17,0.395
								c0.059,0.131,0.118,0.263,0.181,0.39c0.062,0.128,0.123,0.253,0.183,0.375c0.094,0.186,0.187,0.361,0.273,0.52
								c-0.132-0.098-0.264-0.2-0.393-0.302c-0.212-0.165-0.419-0.338-0.631-0.509c-0.204-0.179-0.417-0.352-0.618-0.532
								c-0.101-0.091-0.21-0.183-0.304-0.271l-0.074-0.069l-0.068-0.068c-0.042-0.046-0.087-0.092-0.132-0.14
								c-0.02-0.021-0.037-0.042-0.057-0.061c-0.001-0.031-0.005-0.062-0.016-0.094c-0.003-0.01-0.008-0.016-0.012-0.023
								l-0.001-0.005c0,0-0.007-0.015-0.019-0.041c-0.012-0.023-0.031-0.063-0.055-0.114c-0.019-0.05-0.048-0.111-0.077-0.184
								c-0.03-0.071-0.061-0.152-0.095-0.244s-0.067-0.189-0.102-0.295c-0.036-0.1-0.073-0.208-0.104-0.325
								c-0.017-0.061-0.034-0.119-0.052-0.18c-0.016-0.062-0.032-0.121-0.047-0.183c-0.034-0.125-0.06-0.252-0.089-0.378
								c-0.029-0.127-0.051-0.255-0.075-0.379c-0.022-0.126-0.042-0.253-0.062-0.374c-0.018-0.121-0.032-0.238-0.044-0.349
								c-0.018-0.112-0.022-0.217-0.033-0.314c-0.01-0.099-0.019-0.188-0.021-0.268s-0.008-0.149-0.011-0.207
								c-0.004-0.113-0.01-0.179-0.01-0.179v-0.002c-0.003-0.061-0.054-0.107-0.113-0.102c-0.057,0.003-0.102,0.049-0.103,0.104
								c0,0-0.001,0.068-0.003,0.183c0,0.059-0.004,0.13-0.005,0.21c-0.005,0.081,0,0.172,0,0.273c0.001,0.1,0,0.209,0.008,0.323
								c0.007,0.116,0.011,0.235,0.02,0.359c0.01,0.126,0.02,0.254,0.034,0.386c0.016,0.132,0.029,0.266,0.048,0.396
								c0.021,0.133,0.037,0.266,0.063,0.396c0.022,0.126,0.044,0.252,0.07,0.373c-0.129-0.211-0.25-0.425-0.363-0.635
								c-0.241-0.45-0.451-0.895-0.635-1.326c-0.186-0.429-0.346-0.845-0.488-1.228c-0.071-0.192-0.137-0.377-0.2-0.554
								c-0.065-0.177-0.123-0.344-0.179-0.502c-0.054-0.158-0.106-0.305-0.153-0.443c-0.046-0.135-0.09-0.263-0.128-0.375
								c-0.158-0.456-0.248-0.716-0.248-0.716s0.007,0.07,0.023,0.199c0.017,0.129,0.048,0.316,0.092,0.553
								c0.025,0.119,0.053,0.251,0.083,0.393c0.032,0.141,0.067,0.296,0.109,0.46c0.042,0.164,0.088,0.336,0.139,0.518
								c0.051,0.183,0.11,0.372,0.172,0.569c0.034,0.102,0.068,0.206,0.103,0.311c-0.042-0.025-0.088-0.053-0.135-0.083
								c-0.091-0.052-0.182-0.112-0.275-0.172c-0.092-0.058-0.183-0.12-0.27-0.177c-0.042-0.028-0.082-0.057-0.121-0.084
								C7.2,14.514,7.164,14.489,7.13,14.466c-0.034-0.024-0.062-0.047-0.086-0.068c-0.026-0.02-0.05-0.038-0.067-0.052
								c-0.039-0.028-0.06-0.047-0.06-0.047l-0.002-0.006c-0.045-0.039-0.115-0.03-0.151,0.017
								c-0.034,0.042-0.031,0.101,0.004,0.139c0,0,0.019,0.022,0.052,0.059c0.016,0.018,0.038,0.042,0.061,0.066
								c0.023,0.026,0.049,0.058,0.079,0.088c0.029,0.029,0.062,0.062,0.096,0.097c0.035,0.035,0.07,0.073,0.108,0.108
								c0.077,0.074,0.157,0.153,0.239,0.23c0.166,0.152,0.33,0.305,0.455,0.418c0.126,0.112,0.21,0.187,0.21,0.187
								c0.067,0.059,0.153,0.082,0.235,0.067c0.03,0.079,0.06,0.156,0.091,0.237C8.569,16.448,8.768,16.913,9,17.38
								c0.232,0.469,0.499,0.941,0.816,1.4c0.082,0.119,0.167,0.237,0.26,0.354c0.011,0.023,0.015,0.038,0.015,0.038
								c0.027,0.071,0.078,0.123,0.141,0.152c0.034,0.041,0.067,0.081,0.102,0.122c0.048,0.054,0.095,0.105,0.144,0.158l0.078,0.079
								l0.074,0.074c0.103,0.1,0.205,0.19,0.305,0.286c0.203,0.188,0.41,0.373,0.618,0.555c0.209,0.181,0.419,0.358,0.632,0.532
								c0.424,0.346,0.85,0.673,1.278,0.974c0.071,0.051,0.141,0.098,0.212,0.147c-0.077-0.015-0.156-0.031-0.24-0.049
								c-0.203-0.042-0.418-0.095-0.633-0.15c-0.11-0.025-0.212-0.058-0.318-0.085c-0.106-0.029-0.208-0.062-0.306-0.09
								c-0.1-0.032-0.193-0.065-0.284-0.095c-0.087-0.032-0.172-0.064-0.25-0.094c-0.077-0.029-0.144-0.06-0.207-0.087
								c-0.062-0.023-0.113-0.05-0.155-0.072c-0.085-0.042-0.134-0.067-0.134-0.067l-0.005-0.003
								c-0.054-0.027-0.12-0.008-0.145,0.047c-0.026,0.052-0.009,0.112,0.039,0.142c0,0,0.048,0.029,0.135,0.085
								c0.042,0.026,0.095,0.06,0.155,0.09c0.064,0.035,0.131,0.072,0.209,0.11c0.078,0.038,0.162,0.078,0.25,0.119
								c0.089,0.038,0.185,0.081,0.284,0.122c0.098,0.038,0.2,0.083,0.304,0.121c0.104,0.039,0.211,0.081,0.318,0.118
								c0.216,0.075,0.432,0.145,0.633,0.208c0.202,0.066,0.393,0.122,0.556,0.17c0.163,0.047,0.302,0.084,0.397,0.11
								c0.098,0.025,0.152,0.039,0.152,0.039c0.087,0.022,0.174,0.004,0.238-0.049c0.018,0.012,0.04,0.024,0.059,0.035
								c0.41,0.248,0.816,0.46,1.194,0.642c0.764,0.363,1.437,0.593,1.924,0.712c0.243,0.062,0.44,0.097,0.58,0.116
								c0.07,0.01,0.123,0.014,0.162,0.017v-0.001l0.006,0.007l0.021,0.03l0.011,0.014c0.007,0.006,0.017,0.015,0.021,0.02
								c0.014,0.016,0.029,0.03,0.046,0.042c0.015,0.015,0.031,0.026,0.045,0.035c0.117,0.077,0.245,0.108,0.363,0.119
								c0.027,0.001,0.056,0.002,0.081,0.002c-0.075,0.042-0.164,0.087-0.267,0.127c-0.133,0.054-0.292,0.105-0.47,0.149
								c-0.359,0.089-0.814,0.127-1.327,0.089c-0.256-0.021-0.526-0.061-0.809-0.12c-0.282-0.064-0.576-0.14-0.876-0.245
								c-0.075-0.019-0.15-0.05-0.227-0.078c-0.074-0.028-0.152-0.055-0.23-0.087c-0.151-0.064-0.309-0.125-0.463-0.198
								c-0.077-0.035-0.155-0.07-0.234-0.107c-0.08-0.037-0.157-0.075-0.238-0.116c-0.159-0.075-0.316-0.163-0.475-0.248
								c-0.16-0.084-0.32-0.182-0.485-0.274c-0.076-0.05-0.157-0.098-0.237-0.149c-0.079-0.051-0.159-0.098-0.236-0.152
								c-0.077-0.057-0.156-0.111-0.235-0.164c-0.04-0.026-0.079-0.056-0.119-0.083c-0.039-0.029-0.077-0.06-0.115-0.089
								c-0.077-0.058-0.155-0.116-0.233-0.18c-0.077-0.06-0.15-0.125-0.226-0.186c-0.305-0.252-0.594-0.533-0.875-0.821
								c-0.138-0.151-0.281-0.298-0.413-0.454c-0.134-0.154-0.265-0.318-0.396-0.479c-0.516-0.652-0.981-1.359-1.395-2.099
								c-0.418-0.737-0.791-1.501-1.133-2.269c-0.172-0.381-0.339-0.765-0.516-1.141c-0.088-0.188-0.18-0.375-0.281-0.561
								l-0.084-0.139c-0.032-0.049-0.067-0.097-0.102-0.146l-0.05-0.055L6.409,14.38l-0.032-0.034l-0.098-0.1l-0.08-0.103
								c-0.024-0.035-0.043-0.074-0.065-0.108c-0.009-0.018-0.013-0.038-0.02-0.055c-0.005-0.02-0.017-0.035-0.019-0.054
								c-0.006-0.039-0.018-0.075-0.016-0.115c-0.009-0.157,0.044-0.347,0.075-0.543c0.036-0.196,0.052-0.402,0.041-0.601
								c-0.002-0.098-0.014-0.199-0.027-0.299c-0.004-0.05-0.014-0.094-0.022-0.14c-0.012-0.046-0.02-0.09-0.029-0.137
								c-0.018-0.088-0.037-0.177-0.054-0.265c-0.008-0.042-0.012-0.085-0.016-0.127l-0.009-0.065l-0.002-0.062
								c-0.011-0.167,0.004-0.324,0.063-0.458c0.027-0.069,0.071-0.13,0.119-0.198c0.048-0.067,0.106-0.151,0.138-0.245
								c0.04-0.094,0.045-0.195,0.041-0.294c-0.002-0.045-0.011-0.083-0.016-0.123l-0.01-0.061
								c-0.003-0.016-0.006-0.034-0.006-0.052C6.353,10.009,6.403,9.879,6.48,9.762c0.077-0.12,0.177-0.232,0.27-0.346
								c0.095-0.114,0.185-0.231,0.261-0.353c0.075-0.122,0.134-0.25,0.18-0.379c0.042-0.13,0.067-0.26,0.081-0.384
								c0.006-0.062,0.008-0.126,0.01-0.185C7.28,8.056,7.277,8.001,7.275,7.94C7.264,7.724,7.293,7.518,7.392,7.368
								c0.098-0.147,0.26-0.208,0.4-0.221c0.141-0.016,0.265,0.005,0.361,0.025c0.042,0.01,0.08,0.021,0.113,0.029
								c0,0.09,0.011,0.175,0.021,0.259c0.031,0.199,0.075,0.384,0.126,0.574c0.027,0.092,0.048,0.181,0.08,0.273
								c0.033,0.092,0.06,0.187,0.097,0.277c0.068,0.181,0.15,0.358,0.238,0.528C8.918,9.283,9.02,9.444,9.094,9.596
								c0.075,0.152,0.123,0.306,0.143,0.473c0.008,0.085,0.018,0.168,0.016,0.258c0.004,0.083-0.001,0.173-0.006,0.262
								c-0.009,0.177-0.027,0.348-0.067,0.509c-0.017,0.083-0.042,0.157-0.074,0.243c-0.01,0.024-0.016,0.05-0.025,0.08
								c-0.003,0.015-0.007,0.034-0.009,0.053c-0.002,0.02-0.004,0.042-0.002,0.063c0.002,0.046,0.019,0.093,0.036,0.125
								c0.008,0.02,0.018,0.033,0.027,0.046c0.009,0.015,0.017,0.026,0.026,0.038c0.069,0.088,0.134,0.148,0.201,0.213
								c0.063,0.061,0.128,0.125,0.195,0.185c0.125,0.123,0.254,0.245,0.378,0.368c0.251,0.247,0.493,0.496,0.735,0.745
								c0.235,0.249,0.467,0.499,0.672,0.756c0.051,0.065,0.101,0.128,0.146,0.195c0.048,0.064,0.086,0.134,0.129,0.201
								c0.078,0.136,0.136,0.278,0.189,0.433c0.052,0.154,0.105,0.314,0.17,0.467c0.063,0.155,0.132,0.306,0.206,0.452l0.028,0.058
								l0.029,0.053c0.02,0.036,0.037,0.07,0.061,0.106c0.022,0.036,0.045,0.073,0.07,0.107l0.069,0.1
								c0.098,0.132,0.2,0.255,0.306,0.375c0.432,0.465,0.902,0.845,1.341,1.213c0.888,0.731,1.708,1.397,2.192,2.197
								c0.272,0.386,0.557,0.722,0.825,1.026c0.266,0.305,0.522,0.574,0.753,0.82c0.465,0.485,0.849,0.849,1.108,1.097
								c0.072,0.069,0.134,0.127,0.189,0.178c-0.06,0.045-0.121,0.095-0.185,0.155c-0.102,0.097-0.214,0.211-0.313,0.363
								c-0.021,0.039-0.046,0.079-0.066,0.124c-0.014,0.019-0.021,0.042-0.03,0.064c-0.016-0.002-0.032-0.004-0.052-0.007
								c-0.117-0.017-0.292-0.048-0.516-0.103c-0.222-0.056-0.494-0.135-0.801-0.241c-0.092-0.033-0.188-0.068-0.284-0.106
								C16.909,23.26,16.874,23.18,16.805,23.124"/>
						</g>
					</g>
				</g>
			</g>
		</g>
		<g>
			<g>
				<g>
					<g>
						<g>
							<defs>
								<rect id="SVGID_9_" x="4.659" y="4.969" width="17.997" height="20.092"/>
							</defs>
							<clipPath id="SVGID_10_">
								<use xlink:href="#SVGID_9_"  overflow="visible"/>
							</clipPath>
							<path clip-path="url(#SVGID_10_)" fill="#005E96" d="M18.981,22.897c-0.253-0.257-0.618-0.638-1.07-1.132
								c-0.225-0.25-0.473-0.524-0.731-0.837c-0.257-0.309-0.53-0.652-0.787-1.034c-0.063-0.098-0.13-0.199-0.194-0.301
								c-0.066-0.101-0.142-0.203-0.22-0.303c-0.154-0.198-0.333-0.387-0.519-0.574c-0.376-0.377-0.799-0.731-1.237-1.106
								c-0.432-0.378-0.891-0.765-1.294-1.218c-0.101-0.113-0.196-0.234-0.283-0.355l-0.066-0.094
								c-0.02-0.031-0.038-0.061-0.057-0.095c-0.019-0.03-0.037-0.064-0.057-0.101l-0.028-0.052l-0.022-0.052
								c-0.069-0.142-0.134-0.285-0.189-0.434c-0.062-0.146-0.107-0.298-0.16-0.457c-0.053-0.159-0.116-0.325-0.202-0.481
								c-0.045-0.077-0.089-0.153-0.138-0.224c-0.047-0.074-0.101-0.143-0.154-0.211c-0.211-0.276-0.445-0.53-0.681-0.789
								c-0.119-0.126-0.238-0.251-0.358-0.38c-0.125-0.127-0.249-0.252-0.375-0.378c-0.125-0.126-0.251-0.252-0.379-0.376
								c-0.063-0.061-0.127-0.122-0.191-0.187c-0.06-0.061-0.128-0.124-0.168-0.178c-0.004-0.004-0.011-0.014-0.012-0.018
								c-0.002-0.004-0.007-0.011-0.007-0.013c-0.004-0.001-0.006-0.005-0.005-0.005c-0.001,0,0,0.001,0,0.001
								c-0.002,0.005,0.005-0.027,0.02-0.067c0.03-0.082,0.064-0.179,0.087-0.272c0.046-0.19,0.069-0.384,0.081-0.57
								c0.003-0.093,0.012-0.188,0.009-0.285c0-0.094-0.011-0.192-0.017-0.291C9.552,9.83,9.492,9.625,9.404,9.445
								c-0.09-0.179-0.187-0.334-0.268-0.494C9.055,8.791,8.98,8.631,8.92,8.459C8.885,8.375,8.862,8.291,8.833,8.205
								C8.803,8.121,8.78,8.025,8.755,7.937C8.707,7.765,8.665,7.581,8.64,7.408C8.628,7.321,8.619,7.235,8.622,7.157
								C8.624,7.08,8.638,7.015,8.664,6.978c0.012-0.019,0.028-0.034,0.05-0.048c0.024-0.015,0.054-0.028,0.088-0.038
								C8.871,6.868,8.959,6.853,9.048,6.84c0.182-0.026,0.376-0.045,0.57-0.076c0.196-0.033,0.387-0.071,0.583-0.129l0.14-0.042
								l0.14-0.049c0.047-0.017,0.094-0.031,0.141-0.052l0.14-0.06c0.047-0.018,0.092-0.046,0.14-0.07l0.07-0.036l0.068-0.045
								l0.07-0.048l0.066-0.058c0.044-0.037,0.082-0.088,0.12-0.135c0.07-0.102,0.111-0.212,0.142-0.3
								c0.031-0.089,0.064-0.153,0.106-0.217c0.043-0.062,0.1-0.122,0.163-0.173c0.033-0.024,0.058-0.05,0.099-0.077l0.12-0.079
								l0.027-0.018c0,0,0.008-0.005,0.009-0.005l0.016-0.008l0.058-0.03l0.056-0.03l0.029-0.016l0.03-0.012l0.118-0.046
								c0.04-0.013,0.082-0.02,0.121-0.033c0.163-0.035,0.332-0.035,0.504-0.008c0.344,0.06,0.699,0.208,1.063,0.336
								c0.183,0.063,0.367,0.125,0.559,0.176c0.193,0.056,0.376,0.094,0.562,0.134l0.136,0.03c0.045,0.01,0.085,0.025,0.128,0.036
								c0.091,0.021,0.165,0.056,0.247,0.087c0.155,0.069,0.275,0.158,0.375,0.29c0.097,0.133,0.188,0.302,0.296,0.463
								c0.105,0.163,0.217,0.325,0.348,0.472c0.251,0.3,0.531,0.559,0.81,0.804c0.139,0.122,0.279,0.247,0.429,0.365
								c0.037,0.031,0.073,0.06,0.115,0.087l0.06,0.045l0.067,0.042c0.021,0.014,0.047,0.026,0.07,0.038
								c0.024,0.014,0.051,0.024,0.075,0.035c0.026,0.011,0.051,0.019,0.073,0.028l0.066,0.021c0.162,0.05,0.315,0.126,0.471,0.208
								c0.077,0.042,0.152,0.087,0.229,0.13c0.078,0.047,0.155,0.093,0.234,0.14c0.294,0.185,0.586,0.384,0.818,0.618
								c0.112,0.12,0.216,0.244,0.284,0.386c0.042,0.069,0.063,0.146,0.098,0.218l0.031,0.116l0.017,0.059l0.014,0.06
								c0.065,0.32,0.083,0.662,0.106,0.999c0.01,0.168,0.019,0.335,0.031,0.503c0.004,0.084,0.011,0.167,0.015,0.251
								c0.007,0.083,0.017,0.167,0.023,0.251c0.014,0.167,0.041,0.331,0.059,0.494c0.016,0.083,0.028,0.163,0.044,0.243
								c0.014,0.082,0.028,0.161,0.045,0.241c0.064,0.317,0.145,0.626,0.231,0.927c0.178,0.601,0.389,1.171,0.628,1.695
								c0.459,1.047,0.766,2.059,0.869,2.979c0.05,0.459,0.052,0.896,0.011,1.295c-0.043,0.398-0.131,0.76-0.246,1.07
								c-0.232,0.627-0.557,1.053-0.811,1.306c-0.082,0.087-0.155,0.153-0.219,0.203c-0.011-0.056-0.028-0.113-0.061-0.162
								l-0.005-0.014l-0.004-0.004l-0.003-0.005c0.004,0.003-0.018-0.022-0.011-0.015l-0.012-0.015l-0.022-0.025l-0.015-0.016
								l-0.02-0.02c-0.014-0.014-0.027-0.023-0.042-0.035c-0.108-0.083-0.215-0.109-0.318-0.126
								c-0.051-0.005-0.099-0.013-0.148-0.008c-0.047-0.003-0.094,0.002-0.136,0.006c-0.017,0.004-0.034,0.007-0.05,0.012
								c-0.023-0.126-0.055-0.292-0.099-0.5c-0.026-0.117-0.055-0.247-0.087-0.388c-0.016-0.071-0.034-0.146-0.051-0.222
								c-0.018-0.074-0.039-0.155-0.059-0.236c-0.032-0.124-0.066-0.258-0.101-0.396c0.022-0.027,0.042-0.062,0.055-0.1
								c0.004-0.014,0.006-0.023,0.007-0.037l0.002-0.003c0,0,0.007-0.046,0.017-0.127c0.001-0.013,0.003-0.02,0.005-0.031
								c0.002-0.013,0.004-0.019,0.009-0.027c0.004-0.019,0.009-0.042,0.013-0.062c0.009-0.042,0.028-0.102,0.048-0.163
								c0.019-0.062,0.046-0.131,0.072-0.207c0.026-0.075,0.057-0.153,0.087-0.243c0.016-0.042,0.027-0.087,0.043-0.134
								c0.015-0.046,0.028-0.093,0.04-0.143c0.012-0.051,0.023-0.099,0.034-0.151c0.007-0.047,0.014-0.093,0.019-0.138
								c0.059-0.37,0.115-0.739,0.153-1.017c0.042-0.278,0.069-0.46,0.069-0.46v-0.002c0.011-0.06-0.032-0.113-0.091-0.122
								c-0.057-0.012-0.108,0.024-0.121,0.079c0,0-0.048,0.183-0.117,0.452c-0.07,0.272-0.165,0.631-0.262,0.994
								c-0.014,0.043-0.021,0.09-0.036,0.134c-0.012,0.037-0.027,0.077-0.041,0.116c-0.013,0.039-0.029,0.078-0.048,0.116
								c-0.014,0.038-0.03,0.076-0.05,0.114c-0.036,0.075-0.073,0.149-0.11,0.22c-0.016,0.03-0.029,0.06-0.044,0.086
								c-0.045-0.142-0.091-0.286-0.137-0.438c-0.069-0.207-0.149-0.426-0.225-0.646c-0.08-0.22-0.172-0.443-0.26-0.677
								c-0.074-0.187-0.155-0.379-0.235-0.571c0.06-0.021,0.115-0.064,0.148-0.127c0.005-0.011,0.013-0.02,0.016-0.03
								c0,0,0.018-0.048,0.051-0.134c0.011-0.017,0.017-0.051,0.027-0.082c0.009-0.035,0.02-0.07,0.031-0.108
								c0.012-0.04,0.014-0.071,0.023-0.11c0.008-0.039,0.016-0.079,0.021-0.119c0.015-0.082,0.025-0.171,0.035-0.261
								c0.013-0.087,0.02-0.181,0.033-0.274c0.007-0.049,0.012-0.095,0.017-0.142c0.011-0.046,0.017-0.09,0.025-0.138
								c0.022-0.098,0.047-0.198,0.069-0.297c0.05-0.203,0.098-0.405,0.145-0.593c0.021-0.094,0.042-0.188,0.063-0.273
								c0.019-0.087,0.038-0.17,0.057-0.247c0.016-0.078,0.029-0.148,0.043-0.21c0.013-0.062,0.023-0.117,0.033-0.163
								c0.019-0.089,0.027-0.14,0.027-0.14c0.013-0.059-0.026-0.117-0.086-0.128c-0.056-0.01-0.108,0.021-0.125,0.075l-0.003,0.008
								c0,0-0.014,0.048-0.04,0.135c-0.014,0.042-0.027,0.095-0.046,0.155c-0.018,0.059-0.036,0.127-0.061,0.202
								c-0.023,0.072-0.051,0.152-0.08,0.237s-0.057,0.172-0.089,0.264c-0.063,0.185-0.132,0.38-0.2,0.576
								c-0.034,0.099-0.067,0.2-0.1,0.295c-0.017,0.054-0.03,0.107-0.044,0.157c-0.016,0.051-0.023,0.1-0.038,0.15
								c-0.021,0.096-0.043,0.188-0.061,0.277c-0.02,0.087-0.041,0.162-0.059,0.234c-0.009,0.035-0.019,0.067-0.028,0.097
								c-0.011,0.028-0.019,0.063-0.027,0.083c-0.011,0.022-0.019,0.042-0.027,0.062c-0.001,0.003-0.001,0.005-0.002,0.009
								c-0.039-0.09-0.079-0.18-0.117-0.265c-0.108-0.24-0.219-0.483-0.328-0.726c-0.053-0.114-0.107-0.229-0.16-0.341
								c0.015-0.088-0.015-0.182-0.085-0.247c-0.009-0.005-0.016-0.013-0.021-0.017c0,0-0.011-0.007-0.028-0.019
								c-0.015-0.035-0.031-0.069-0.047-0.104c-0.116-0.235-0.233-0.473-0.349-0.711c0.041-0.034,0.072-0.081,0.087-0.136
								c0.004-0.013,0.007-0.023,0.008-0.036l0.001-0.002c0,0,0.007-0.046,0.019-0.127c0.001-0.01,0.003-0.02,0.004-0.031
								c0.002-0.011,0.005-0.018,0.008-0.029c0.005-0.018,0.009-0.04,0.014-0.062C17.77,14.06,17.791,14,17.81,13.938
								c0.019-0.061,0.045-0.131,0.071-0.206c0.028-0.076,0.056-0.155,0.088-0.243c0.014-0.042,0.029-0.088,0.042-0.134
								c0.014-0.045,0.028-0.093,0.039-0.143c0.014-0.05,0.024-0.098,0.034-0.152c0.007-0.046,0.015-0.092,0.02-0.139
								c0.057-0.369,0.114-0.737,0.152-1.015c0.043-0.278,0.069-0.461,0.069-0.461l0.002-0.004c0.012-0.059-0.031-0.114-0.091-0.123
								c-0.056-0.009-0.108,0.027-0.122,0.081c0,0-0.045,0.18-0.116,0.452c-0.069,0.271-0.165,0.631-0.262,0.993
								c-0.014,0.046-0.024,0.09-0.036,0.134c-0.013,0.038-0.027,0.077-0.039,0.116c-0.016,0.038-0.031,0.079-0.049,0.116
								c-0.017,0.038-0.031,0.076-0.051,0.114c-0.037,0.075-0.075,0.149-0.112,0.222c-0.035,0.072-0.069,0.142-0.103,0.209
								c-0.017,0.044-0.037,0.083-0.053,0.123c-0.015-0.031-0.029-0.061-0.043-0.092c-0.106-0.234-0.185-0.47-0.221-0.706
								c-0.007-0.059-0.016-0.118-0.016-0.177l-0.002-0.044c-0.001-0.017,0-0.034-0.001-0.05v-0.1
								c-0.002-0.134-0.003-0.266-0.01-0.4c-0.009-0.265-0.027-0.528-0.062-0.787c-0.034-0.258-0.086-0.51-0.153-0.753
								c-0.068-0.245-0.151-0.469-0.233-0.688c-0.162-0.44-0.34-0.846-0.514-1.215c-0.179-0.368-0.357-0.698-0.535-0.98
								c-0.175-0.282-0.347-0.519-0.504-0.699c-0.153-0.183-0.295-0.309-0.397-0.386c-0.025-0.019-0.05-0.035-0.067-0.05
								c-0.02-0.014-0.039-0.023-0.052-0.033C14.457,6.7,14.443,6.69,14.443,6.69s0.014,0.012,0.038,0.033
								c0.013,0.011,0.028,0.024,0.045,0.04c0.018,0.017,0.038,0.037,0.062,0.059c0.089,0.09,0.208,0.229,0.345,0.421
								C15,7.337,15.068,7.446,15.14,7.569c0.072,0.121,0.145,0.255,0.219,0.4c0.15,0.291,0.307,0.625,0.459,0.997
								c0.153,0.373,0.307,0.78,0.455,1.215c0.072,0.216,0.148,0.445,0.205,0.67c0.055,0.229,0.096,0.467,0.117,0.713
								c0.017,0.16,0.022,0.325,0.029,0.492c-0.024-0.02-0.056-0.044-0.09-0.069c-0.018-0.015-0.034-0.027-0.054-0.042
								c-0.019-0.014-0.042-0.03-0.064-0.045c-0.047-0.032-0.094-0.066-0.147-0.102c-0.025-0.017-0.054-0.035-0.082-0.056
								c-0.027-0.017-0.057-0.033-0.086-0.051c-0.059-0.035-0.122-0.072-0.185-0.112c-0.064-0.038-0.134-0.072-0.207-0.111
								c-0.071-0.039-0.145-0.078-0.223-0.114c-0.027-0.013-0.056-0.027-0.084-0.041c0.002-0.016,0.006-0.03,0.004-0.047
								c0-0.014-0.002-0.031-0.004-0.047c0,0-0.003-0.01-0.006-0.028c-0.004-0.017-0.01-0.044-0.015-0.08
								c-0.015-0.067-0.034-0.16-0.06-0.274c-0.027-0.112-0.059-0.243-0.1-0.38c-0.019-0.069-0.041-0.14-0.063-0.212
								c-0.02-0.072-0.045-0.147-0.069-0.22c-0.026-0.073-0.051-0.145-0.078-0.214c-0.031-0.07-0.058-0.139-0.087-0.205
								c-0.031-0.066-0.059-0.131-0.091-0.189c-0.031-0.058-0.058-0.114-0.087-0.166c-0.028-0.05-0.056-0.095-0.081-0.136
								C14.64,9.08,14.612,9.047,14.594,9.02c-0.042-0.056-0.061-0.088-0.061-0.088c-0.035-0.05-0.102-0.062-0.15-0.026
								c-0.045,0.031-0.06,0.091-0.036,0.137l0.01,0.008c0,0,0.017,0.032,0.046,0.087c0.015,0.028,0.034,0.061,0.051,0.1
								c0.016,0.04,0.037,0.086,0.058,0.134c0.019,0.05,0.039,0.105,0.059,0.164c0.023,0.057,0.037,0.121,0.06,0.184
								c0.019,0.063,0.033,0.132,0.051,0.199c0.018,0.069,0.033,0.141,0.049,0.21c0.014,0.07,0.028,0.143,0.04,0.213
								c0.012,0.069,0.022,0.139,0.03,0.206c0.019,0.133,0.03,0.26,0.038,0.368c0.007,0.056,0.011,0.107,0.014,0.151
								c-0.123-0.05-0.248-0.1-0.376-0.148c-0.088-0.034-0.178-0.068-0.265-0.103c-0.09-0.034-0.181-0.07-0.27-0.105
								c-0.18-0.073-0.363-0.14-0.536-0.215c-0.174-0.073-0.348-0.145-0.514-0.213c-0.335-0.138-0.65-0.268-0.917-0.376
								c-0.135-0.057-0.264-0.1-0.374-0.143c-0.112-0.042-0.208-0.077-0.288-0.106c-0.161-0.06-0.25-0.095-0.25-0.095
								c-0.056-0.021-0.118,0.008-0.139,0.064c-0.02,0.055,0.006,0.115,0.059,0.136l0.005,0.002c0,0,0.087,0.039,0.243,0.105
								c0.077,0.034,0.171,0.075,0.28,0.121c0.107,0.047,0.229,0.096,0.36,0.157c0.26,0.125,0.567,0.269,0.894,0.423
								c0.166,0.078,0.336,0.16,0.507,0.242c0.171,0.083,0.348,0.159,0.524,0.242c0.089,0.039,0.174,0.08,0.264,0.12
								s0.177,0.079,0.266,0.117c0.172,0.075,0.339,0.154,0.498,0.232c0.08,0.041,0.154,0.08,0.232,0.119
								c0.077,0.04,0.149,0.082,0.218,0.12c0.072,0.038,0.139,0.08,0.205,0.12c0.064,0.039,0.127,0.077,0.184,0.113
								c0.058,0.04,0.112,0.078,0.167,0.113c0.024,0.019,0.05,0.035,0.075,0.053c0.021,0.017,0.043,0.035,0.066,0.05
								c0.044,0.034,0.084,0.065,0.12,0.094c0.018,0.015,0.038,0.027,0.053,0.042c0.019,0.014,0.034,0.03,0.052,0.043
								c0.126,0.112,0.198,0.177,0.198,0.177l0.001,0.001c0.066,0.057,0.152,0.078,0.235,0.063
								c-0.001,0.022-0.001,0.045-0.001,0.066l-0.008,0.099l-0.002,0.049v0.055c-0.003,0.075,0.004,0.147,0.013,0.221
								c0.031,0.292,0.117,0.573,0.228,0.829c0.106,0.26,0.229,0.505,0.343,0.745c0.05,0.108,0.099,0.214,0.145,0.322
								c-0.066-0.023-0.136-0.049-0.216-0.08c-0.1-0.038-0.209-0.08-0.32-0.122c-0.111-0.042-0.227-0.084-0.345-0.13
								c-0.121-0.04-0.241-0.083-0.363-0.125c-0.123-0.042-0.247-0.075-0.37-0.111c-0.063-0.019-0.12-0.034-0.178-0.05
								c-0.059-0.018-0.118-0.034-0.174-0.049c-0.233-0.065-0.454-0.118-0.647-0.149c-0.196-0.03-0.365-0.042-0.498-0.017
								c-0.065,0.013-0.121,0.033-0.159,0.055c-0.017,0.011-0.031,0.022-0.041,0.029c-0.01,0.008-0.014,0.012-0.014,0.012
								c-0.03,0.025-0.035,0.07-0.012,0.1c0.01,0.012,0.02,0.02,0.034,0.023l0.118,0.039c0.002,0.001,0.006-0.003,0.021-0.01
								c0.013-0.006,0.039-0.016,0.083-0.02c0.09-0.012,0.237,0.006,0.414,0.05c0.177,0.043,0.381,0.111,0.601,0.188
								c0.057,0.021,0.111,0.043,0.171,0.063c0.057,0.021,0.117,0.042,0.174,0.065c0.111,0.043,0.23,0.084,0.345,0.133
								c0.112,0.051,0.227,0.098,0.338,0.148c0.111,0.053,0.223,0.104,0.327,0.155c0.106,0.051,0.208,0.101,0.308,0.148
								c0.092,0.046,0.2,0.094,0.286,0.133c0.086,0.038,0.162,0.07,0.22,0.1c0.029,0.017,0.059,0.03,0.08,0.045
								c0.022,0.016,0.046,0.027,0.056,0.037c0.015,0.01,0.025,0.019,0.035,0.027c0.018,0.013,0.029,0.026,0.043,0.034
								c0.005,0.007,0.009,0.01,0.012,0.013c0.061,0.137,0.119,0.273,0.181,0.407c0.103,0.244,0.207,0.486,0.309,0.725
								c0.098,0.239,0.197,0.478,0.294,0.712c0.033,0.083,0.066,0.165,0.099,0.247c-0.057-0.034-0.118-0.069-0.181-0.106
								c-0.103-0.06-0.219-0.116-0.332-0.177c-0.117-0.063-0.234-0.126-0.358-0.182c-0.124-0.06-0.247-0.118-0.375-0.178
								c-0.129-0.054-0.256-0.106-0.381-0.16s-0.253-0.097-0.375-0.141s-0.238-0.094-0.352-0.128
								c-0.112-0.036-0.222-0.069-0.319-0.099c-0.05-0.017-0.096-0.031-0.141-0.046c-0.045-0.014-0.089-0.024-0.131-0.035
								c-0.081-0.021-0.15-0.042-0.207-0.059c-0.12-0.028-0.184-0.047-0.184-0.047c-0.058-0.017-0.118,0.018-0.132,0.075
								c-0.017,0.056,0.015,0.112,0.069,0.131l0.005,0.002c0,0,0.063,0.021,0.176,0.061c0.056,0.02,0.125,0.044,0.2,0.07
								c0.041,0.015,0.081,0.026,0.128,0.044c0.042,0.018,0.087,0.034,0.133,0.053c0.095,0.039,0.197,0.079,0.305,0.122
								c0.108,0.042,0.219,0.097,0.334,0.147c0.113,0.054,0.235,0.103,0.353,0.166c0.119,0.061,0.237,0.121,0.357,0.182
								c0.117,0.065,0.234,0.131,0.35,0.197c0.118,0.06,0.225,0.132,0.333,0.2c0.104,0.07,0.209,0.131,0.301,0.197
								c0.094,0.066,0.183,0.127,0.263,0.183c0.04,0.03,0.08,0.058,0.115,0.084c0.038,0.028,0.071,0.056,0.105,0.083
								c0.064,0.051,0.123,0.095,0.17,0.134c0.035,0.026,0.063,0.05,0.088,0.07c0.032,0.086,0.063,0.175,0.093,0.262
								c0.07,0.218,0.143,0.429,0.207,0.635c0.063,0.209,0.122,0.406,0.181,0.599c0.053,0.194,0.104,0.381,0.154,0.555
								c0.045,0.178,0.083,0.346,0.124,0.503c0.019,0.077,0.038,0.155,0.056,0.229c0.018,0.076,0.033,0.146,0.046,0.216
								c0.03,0.134,0.06,0.262,0.084,0.374c0.047,0.231,0.082,0.415,0.106,0.539c0.002,0.01,0.003,0.015,0.004,0.021
								c-0.052,0.025-0.103,0.05-0.146,0.072c-0.086,0.048-0.154,0.085-0.195,0.115c-0.046,0.028-0.07,0.043-0.07,0.043l-0.218,0.14
								c-0.013,0.012-0.026,0.018-0.042,0.026c-0.025,0.019-0.057,0.038-0.087,0.06C19.112,23.032,19.051,22.97,18.981,22.897"/>
						</g>
					</g>
				</g>
			</g>
		</g>
		<g>
			<g>
				<g>
					<g>
						<g>
							<defs>
								<rect id="SVGID_11_" x="4.659" y="4.969" width="17.997" height="20.092"/>
							</defs>
							<clipPath id="SVGID_12_">
								<use xlink:href="#SVGID_11_"  overflow="visible"/>
							</clipPath>
							<path clip-path="url(#SVGID_12_)" fill="#005E96" d="M21.352,14.253c-0.159-0.593-0.29-1.215-0.343-1.863
								c-0.009-0.082-0.015-0.162-0.019-0.243c-0.005-0.084-0.012-0.166-0.015-0.25c-0.009-0.166-0.015-0.333-0.022-0.501
								c-0.018-0.338-0.027-0.685-0.099-1.046c-0.017-0.119-0.055-0.24-0.1-0.359c0.408,0.187,1.311,0.72,1.421,1.834
								c0.146,1.444-0.629,0.705,0.076,2.214c0.578,1.233-0.074,1.714-0.331,1.847C21.701,15.377,21.51,14.832,21.352,14.253"/>
						</g>
					</g>
				</g>
			</g>
		</g>
	</g>
</g>
<g id="圖層_2">
	<rect x="0.95" y="2.516" fill="none" width="25" height="25"/>
</g>
</svg>
