<?xml version="1.0" encoding="utf-8"?>
<!-- Generator: Adobe Illustrator 13.0.0, SVG Export Plug-In . SVG Version: 6.00 Build 14948)  -->
<!DOCTYPE svg PUBLIC "-//W3C//DTD SVG 1.1//EN" "http://www.w3.org/Graphics/SVG/1.1/DTD/svg11.dtd">
<svg version="1.1" xmlns="http://www.w3.org/2000/svg" xmlns:xlink="http://www.w3.org/1999/xlink" x="0px" y="0px" width="25px"
	 height="25px" viewBox="0 0 25 25" enable-background="new 0 0 25 25" xml:space="preserve">
<g id="圖層_1">
	<rect x="2.917" y="3.071" fill="none" width="19.999" height="19.693"/>
	<path fill="#005D8F" stroke="#005D8F" stroke-width="0.25" d="M13.259,21.398c0.513-0.162,1.011-0.358,1.427-0.713
		c0.112-0.095,0.238-0.178,0.347-0.281c0.061-0.059,0.096-0.147,0.159-0.254c0,0,0,0-0.002,0.002
		c0.225-0.258,0.289-0.586,0.322-0.926c0.008-0.069,0.012-0.142,0.016-0.217c0.049-0.224,0.103-0.443,0.199-0.65
		c0.041-0.092,0.127-0.219,0.2-0.319c0.044-0.056,0.097-0.113,0.128-0.146c0.006-0.006,0.016-0.017,0.021-0.025
		c0.058-0.005,0.111-0.025,0.16-0.057c0.015,0.025,0.025,0.049,0.039,0.07c-0.021,0.018-0.043,0.038-0.062,0.061
		c-0.079,0.082-0.144,0.172-0.198,0.271c-0.022,0.019-0.048,0.04-0.072,0.06c0.013,0.008,0.021,0.013,0.033,0.017
		c-0.153,0.313-0.199,0.675-0.219,1.034c-0.119,0.396-0.146,0.826-0.419,1.165c-0.157,0.194-0.364,0.341-0.578,0.479
		c-0.012-0.015-0.021-0.025-0.032-0.039c-0.219,0.111-0.433,0.236-0.658,0.336c-0.219,0.096-0.438,0.195-0.659,0.284
		c-0.417,0.071-0.834,0.14-1.252,0.201l-0.002-0.019C12.524,21.624,12.893,21.516,13.259,21.398"/>
	<path fill="#005D8F" stroke="#005D8F" stroke-width="0.25" d="M9.947,11.13c-0.004-0.108,0.166-0.131,0.169-0.021
		c0.103,2.017,0.209,4.083,0.931,5.993c0.198,0.52,0.437,1.021,0.729,1.494c0.056,0.092-0.078,0.198-0.136,0.104
		c-1.064-1.723-1.426-3.745-1.583-5.734C10.01,12.354,9.979,11.741,9.947,11.13"/>
	<g id="圖層_2">
		<rect fill="none" width="25" height="25"/>
	</g>
</g>
<g id="圖層_1_拷貝">
	<g>
		<path fill="#005D8F" stroke="#005D8F" stroke-width="0.25" d="M22.243,17.33c0.001-0.016,0.005-0.031,0.007-0.046l-0.313-4.122
			c-0.146-0.003-0.293-0.008-0.441-0.01c-0.596-0.012-1.188-0.021-1.782-0.029c-0.071-0.001-0.144,0.001-0.214-0.003
			c-0.139-0.011-0.234,0.03-0.291,0.169c-0.018,0.041-0.098,0.076-0.146,0.078c-0.291,0.008-0.58,0.007-0.869,0.005
			c-0.135-0.002-0.264-0.019-0.362,0.108c-0.026,0.035-0.104,0.041-0.16,0.043c-0.202,0.006-0.407,0.012-0.61,0.006
			c-0.386-0.01-0.769-0.022-1.146-0.104c-0.387-0.079-0.676-0.278-0.895-0.603c-0.244-0.364-0.51-0.716-0.75-1.085
			c-0.321-0.5-0.629-1.009-0.938-1.518c-0.18-0.293-0.34-0.599-0.523-0.892c-0.224-0.353-0.56-0.603-0.887-0.849
			C11.35,8.045,10.82,7.571,10.383,7c-0.271-0.352-0.575-0.684-0.76-1.091C9.48,5.588,9.351,5.261,9.245,4.928
			c-0.11-0.335-0.164-0.691-0.268-1.03C8.794,3.314,8.228,3.159,7.764,3.501c-0.426,0.317-0.679,0.75-0.785,1.276
			c-0.065,0.321-0.12,0.643-0.125,0.97C6.85,6.071,6.95,6.376,7.021,6.686C7.209,7.493,7.706,8.105,8.27,8.679
			c0.212,0.215,0.428,0.433,0.551,0.713C8.892,9.557,8.944,9.73,8.977,9.905c0.041,0.216-0.058,0.354-0.264,0.44
			c-0.292,0.122-0.602,0.141-0.908,0.176c-0.869,0.095-1.738,0.177-2.609,0.277c-0.587,0.068-1.167,0.194-1.693,0.463
			c-0.461,0.235-0.824,0.593-0.978,1.104c-0.054,0.177-0.092,0.371-0.018,0.562c0.011,0.022,0.013,0.058,0.003,0.081
			c-0.063,0.199-0.024,0.398,0.003,0.592c0.03,0.19,0.127,0.369,0.278,0.524c-0.083,0.056-0.177,0.099-0.245,0.167
			c-0.259,0.26-0.339,0.581-0.271,0.93c0.073,0.364,0.177,0.728,0.268,1.09c0.041,0.162,0.127,0.299,0.26,0.396
			c0.165,0.12,0.336,0.228,0.521,0.351c-0.063,0.047-0.122,0.096-0.187,0.137c-0.167,0.108-0.276,0.271-0.368,0.439
			c-0.035,0.063-0.031,0.155-0.029,0.234c0.004,0.211,0.063,0.41,0.14,0.605c0.137,0.34,0.26,0.688,0.573,0.909
			c0.171,0.124,0.361,0.218,0.539,0.323c-0.181,0.15-0.248,0.365-0.17,0.607c0.14,0.438,0.35,0.845,0.648,1.201
			c0.266,0.317,0.626,0.478,1.019,0.573c0.098,0.021,0.194,0.054,0.291,0.063c0.35,0.033,0.698,0.065,1.048,0.086
			c0.374,0.021,0.75,0.027,1.123,0.046c0.791,0.034,1.579,0.005,2.365-0.082c0.647-0.068,1.294-0.138,1.94-0.224
			c0.371-0.043,0.73-0.129,1.076-0.289c0.414-0.194,0.854-0.33,1.283-0.49c0.434-0.166,0.879-0.286,1.344-0.291
			c0.364-0.006,0.729,0.033,1.092,0.062c0.034,0.003,0.073,0.06,0.092,0.101c0.018,0.041,0.014,0.094,0.014,0.14
			c-0.006,0.19,0.115,0.34,0.357,0.413c0.17,0.049,0.344,0.086,0.516,0.107c0.104,0.013,0.127,0.058,0.129,0.146
			c0.001,0.078,0.01,0.16,0.017,0.241c0.042,0.412,0.296,0.636,0.709,0.674c0.586,0.051,1.168,0.124,1.752,0.195
			c0.063,0.009,0.128,0.019,0.19,0.024c0.064-0.163,0.129-0.323,0.197-0.481c0.289-0.672,0.564-1.344,0.821-2.025
			c0.032-0.218,0.067-0.438,0.101-0.654c0.113-0.715,0.158-1.438,0.271-2.152C22.219,17.575,22.229,17.453,22.243,17.33
			 M3.026,16.191c-0.054-0.016-0.102-0.024-0.137-0.051c-0.042-0.029-0.079-0.074-0.101-0.119c-0.165-0.348-0.286-0.711-0.245-1.094
			c0.031-0.287,0.148-0.461,0.476-0.548c0.083-0.022,0.172-0.065,0.23-0.127c0.061-0.065,0.123-0.081,0.199-0.081
			c0.22-0.002,0.44-0.005,0.66-0.008c0.014,0,0.028-0.006,0.043-0.007c0.238-0.019,0.477-0.038,0.716-0.058
			c0.014,0,0.027,0.006,0.042,0.008c0.088,0.011,0.176,0.023,0.265,0.025c0.318,0.002,0.636,0.01,0.955-0.008
			c0.416-0.02,0.843-0.018,1.245-0.107c0.502-0.117,0.957,0.139,1.19,0.549c0,0.002,0,0.002,0.001,0.002
			c0.077,0.119,0.117,0.271,0.105,0.412c0,0.002,0,0.002,0,0.004c0.005,0.082-0.001,0.168-0.028,0.252
			C8.64,15.33,8.614,15.42,8.554,15.497c-0.035,0.043-0.071,0.085-0.108,0.128c-0.115,0.152-0.271,0.286-0.441,0.377
			c-0.16,0.107-0.331,0.2-0.51,0.275c-0.307,0.135-0.636,0.146-0.962,0.178c-0.591,0.055-1.183,0.096-1.773,0.16
			c-0.076,0.009-0.146,0.009-0.214-0.006c-0.348-0.01-0.684-0.129-1.024-0.195c-0.058-0.014-0.104-0.038-0.138-0.068
			C3.259,16.309,3.13,16.264,3.026,16.191 M3.859,19.211c-0.005,0-0.011,0-0.016,0c-0.157,0.016-0.275-0.048-0.337-0.184
			c0.006,0.004,0.011,0.004,0.016,0.006c-0.017-0.022-0.03-0.051-0.037-0.079c-0.005-0.009-0.009-0.019-0.014-0.026
			c-0.086-0.138-0.189-0.252-0.25-0.41c-0.001,0-0.001,0-0.001,0c-0.138-0.127-0.242-0.504-0.172-0.711
			c0.011-0.05,0.031-0.097,0.064-0.139c0.01-0.018,0.02-0.036,0.033-0.051c0.055-0.061,0.117-0.111,0.189-0.143
			c0.061-0.061,0.129-0.117,0.2-0.168c0.098-0.076,0.185-0.146,0.289-0.191c0.194-0.112,0.403-0.186,0.623-0.227
			c0.749-0.142,1.504-0.214,2.264-0.271c0.32-0.024,0.646-0.037,0.946-0.182c0.114-0.056,0.229-0.115,0.337-0.18
			c0.136-0.079,0.173-0.081,0.292,0.016c0.068,0.059,0.146,0.11,0.196,0.184c0.264,0.387,0.31,0.805,0.146,1.24
			c-0.092,0.246-0.224,0.473-0.473,0.576c-0.305,0.129-0.621,0.229-0.936,0.336c-0.311,0.104-0.629,0.183-0.931,0.307
			c-0.316,0.13-0.635,0.238-0.967,0.253C5,19.213,4.682,19.135,4.36,19.161C4.194,19.175,4.026,19.211,3.859,19.211 M4.839,21.297
			c-0.078-0.052-0.149-0.117-0.211-0.189c-0.271-0.18-0.495-0.603-0.414-0.81c0.002,0.017,0.007,0.026,0.011,0.044
			c-0.027-0.298,0.195-0.644,0.491-0.721c0.033-0.028,0.092-0.043,0.187-0.057c0.444-0.051,0.849-0.228,1.262-0.381
			c0.56-0.205,1.119-0.408,1.681-0.605c0.06-0.021,0.145-0.018,0.2,0.007c0.247,0.112,0.409,0.288,0.392,0.581
			c-0.001,0.02,0.002,0.039,0.004,0.063c0.04,0.287-0.025,0.568-0.1,0.85C8.3,20.227,8.218,20.35,8.108,20.457
			c-0.189,0.186-0.437,0.26-0.667,0.363c-0.305,0.139-0.627,0.242-0.891,0.463c-0.022,0.019-0.053,0.035-0.085,0.046
			c-0.14,0.101-0.306,0.168-0.472,0.183C5.601,21.548,5.175,21.521,4.839,21.297 M17.508,20.791
			c-0.049-0.005-0.099-0.012-0.146-0.016c-0.03,0.002-0.063,0-0.092-0.01c-0.18-0.021-0.351-0.041-0.521-0.062
			c-0.66-0.086-1.31-0.017-1.944,0.173c-0.514,0.152-1.021,0.329-1.517,0.553c-0.222,0.103-0.462,0.172-0.704,0.205
			c-0.652,0.094-1.311,0.157-1.965,0.241c-1.049,0.138-2.101,0.151-3.158,0.095c-0.382-0.021-0.764-0.031-1.146-0.048
			c-0.079-0.097,0.427-0.505,0.42-0.507c0.222-0.166,0.456-0.266,0.688-0.354c0.126-0.08,0.257-0.133,0.403-0.168
			c0.014-0.004,0.029-0.006,0.044-0.009c-0.001-0.002-0.004-0.004-0.006-0.006c0.345-0.106,0.578-0.373,0.687-0.735
			c0.074-0.248,0.108-0.508,0.149-0.766c0.042-0.262,0.02-0.52-0.12-0.758c-0.028-0.047-0.028-0.123-0.012-0.178
			c0.054-0.187,0.124-0.367,0.18-0.553c0.006-0.021,0.015-0.039,0.024-0.054c0-0.012-0.001-0.022-0.001-0.034
			c-0.002-0.246,0.095-0.467,0.141-0.705c0.041-0.205-0.013-0.34-0.122-0.514c-0.103-0.163-0.204-0.32-0.22-0.52
			c-0.017-0.235,0.106-0.455,0.228-0.648c0.046-0.073,0.091-0.145,0.13-0.21c0.009-0.089,0.016-0.179,0.019-0.267
			c0-0.004,0-0.021,0-0.035c-0.002-0.014-0.009-0.079-0.009-0.08c-0.007-0.059-0.018-0.117-0.033-0.176
			C8.844,14.417,8.7,14.225,8.536,14.05c-0.092-0.098-0.092-0.206-0.045-0.297c0.005-0.069,0.044-0.132,0.098-0.174
			c0.036-0.047,0.082-0.081,0.136-0.11c0.347-0.41,0.322-1.085-0.112-1.463c-0.049-0.044-0.086-0.096-0.108-0.153
			c-0.272,0-0.539-0.082-0.814-0.11c-0.071-0.006-0.139-0.013-0.208-0.019c-0.111,0.009-0.224,0.015-0.335,0.027
			c-0.084,0.009-0.427-0.037-0.417-0.015c-0.283-0.075-0.54-0.122-0.822-0.046c0.031,0.029,0.046,0.057,0.067,0.062
			c0.199,0.045,0.398,0.091,0.597,0.127c0.153,0.027,0.308,0.053,0.463,0.059c0.318,0.012,0.634,0.012,0.951,0.013
			c0.332,0,0.532,0.175,0.661,0.468c0.194,0.431,0.065,0.823-0.347,1.049C7.604,13.854,6.861,14,6.069,13.971
			c-0.596-0.022-1.191-0.019-1.788-0.017c-0.105,0.013-0.207,0.012-0.31,0c-0.267,0.001-0.539-0.017-0.793-0.067
			c-0.287-0.056-0.413-0.275-0.415-0.525c-0.002-0.018-0.005-0.03-0.005-0.047c0.001-0.295-0.015-0.604,0.053-0.891
			c0.099-0.417,0.42-0.704,0.781-0.897c0.458-0.247,0.966-0.364,1.483-0.436c0.35-0.049,0.699-0.082,1.047-0.128
			c0.376-0.049,0.751-0.114,1.128-0.159c0.508-0.058,1.021-0.1,1.53-0.159c0.271-0.032,0.365-0.14,0.418-0.414
			C9.268,9.866,9.2,9.505,8.996,9.193C8.833,8.939,8.634,8.708,8.424,8.492c-0.506-0.52-0.97-1.061-1.142-1.794
			C7.202,6.361,7.099,6.03,7.11,5.678c0.01-0.339,0.07-0.67,0.154-0.995C7.376,4.251,7.622,3.91,7.991,3.666
			c0.271-0.178,0.648-0.131,0.748,0.25c0.028,0.11,0.052,0.221,0.078,0.331C8.87,4.473,8.925,4.698,8.98,4.925L8.978,4.921
			c0.03,0.074,0.071,0.142,0.091,0.218C9.216,5.661,9.433,6.15,9.762,6.586c0.094,0.127,0.173,0.264,0.259,0.399l-0.004-0.004
			l0.067,0.083l-0.003-0.003l0.098,0.125c0.009,0.009,0.019,0.016,0.027,0.024l0.255,0.311l0.093,0.107
			c0.019,0.01,0.044,0.015,0.059,0.031c0.387,0.442,0.85,0.8,1.309,1.163c0.423,0.333,0.781,0.718,1.047,1.197
			c0.293,0.53,0.611,1.045,0.938,1.556c0.294,0.46,0.612,0.907,0.925,1.356c0.141,0.202,0.292,0.396,0.516,0.519
			c0.385,0.213,0.81,0.294,1.239,0.323c0.449,0.031,0.899,0.022,1.353,0.033c0.03,0.004,0.063,0.017,0.095,0.021
			c-0.001,0.017-0.002,0.03-0.002,0.048c-0.005,0.002-0.009,0.002-0.011,0.002c0.041,0.033,0.071,0.076,0.09,0.133
			c0.008,0.025,0.012,0.055,0.012,0.082c0.006,0.012,0.01,0.021,0.014,0.037c0.038,0.15,0.102,0.303,0.108,0.453
			c0.024,0.505,0.052,1.018,0.038,1.521c-0.018,0.617-0.063,1.233-0.124,1.849c-0.042,0.415-0.132,0.823-0.204,1.231
			c0,0.004-0.002,0.006-0.004,0.01C17.947,19.305,17.493,20.775,17.508,20.791 M19.852,16.176c-0.016,0.682-0.072,1.363-0.141,2.04
			c-0.055,0.542-0.141,1.083-0.238,1.615c-0.07,0.383-0.177,0.754-0.283,1.127c-0.064,0.229-0.16,0.452-0.238,0.676
			c-0.102-0.016-0.18-0.024-0.26-0.041c-0.314-0.061-0.631-0.122-0.947-0.187c-0.074-0.016-0.104-0.053-0.083-0.133
			c0.06-0.231,0.114-0.469,0.172-0.703c0.106-0.437,0.211-0.872,0.315-1.309c0.14-0.576,0.211-1.166,0.244-1.759
			c0.035-0.663,0.041-1.327,0.071-1.991c0.024-0.535-0.063-1.059-0.142-1.587c-0.016-0.095-0.047-0.188-0.074-0.296
			c0.059-0.002,0.095-0.002,0.133-0.002c0.305-0.016,0.605-0.018,0.908-0.043c0.238-0.02,0.25-0.021,0.309,0.209
			c0.008,0.027,0.012,0.057,0.016,0.084c0.046,0.313,0.105,0.62,0.138,0.932C19.797,15.266,19.861,15.723,19.852,16.176"/>
	</g>
	<g>
		<g>
			<g>
				<defs>
					<rect id="SVGID_1_" x="2.917" y="3.071" width="19.999" height="19.693"/>
				</defs>
				<clipPath id="SVGID_2_">
					<use xlink:href="#SVGID_1_"  overflow="visible"/>
				</clipPath>
				<path clip-path="url(#SVGID_2_)" fill="#005D8F" d="M13.259,21.398c0.513-0.162,1.011-0.358,1.427-0.713
					c0.112-0.095,0.238-0.178,0.347-0.281c0.061-0.059,0.096-0.147,0.159-0.254c0,0,0,0-0.002,0.002
					c0.225-0.258,0.289-0.586,0.322-0.926c0.008-0.069,0.012-0.142,0.016-0.217c0.049-0.224,0.103-0.443,0.199-0.65
					c0.041-0.092,0.127-0.219,0.2-0.319c0.044-0.056,0.097-0.113,0.128-0.146c0.006-0.006,0.016-0.017,0.021-0.025
					c0.058-0.005,0.111-0.025,0.16-0.057c0.015,0.025,0.025,0.049,0.039,0.07c-0.021,0.018-0.043,0.038-0.062,0.061
					c-0.079,0.082-0.144,0.172-0.198,0.271c-0.022,0.019-0.048,0.04-0.072,0.06c0.013,0.008,0.021,0.013,0.033,0.017
					c-0.153,0.313-0.199,0.675-0.219,1.034c-0.119,0.396-0.146,0.826-0.419,1.165c-0.157,0.194-0.364,0.341-0.578,0.479
					c-0.012-0.015-0.021-0.025-0.032-0.039c-0.219,0.111-0.433,0.236-0.658,0.336c-0.219,0.096-0.438,0.195-0.659,0.284
					c-0.417,0.071-0.834,0.14-1.252,0.201l-0.002-0.019C12.524,21.624,12.893,21.516,13.259,21.398"/>
			</g>
		</g>
	</g>
	<g>
		<g>
			<defs>
				<rect id="SVGID_3_" x="2.917" y="3.071" width="19.999" height="19.693"/>
			</defs>
			<clipPath id="SVGID_4_">
				<use xlink:href="#SVGID_3_"  overflow="visible"/>
			</clipPath>
			<path clip-path="url(#SVGID_4_)" fill="#005D8F" d="M9.947,11.13c-0.004-0.108,0.166-0.131,0.169-0.021
				c0.103,2.017,0.209,4.083,0.931,5.993c0.198,0.52,0.437,1.021,0.729,1.494c0.056,0.092-0.078,0.198-0.136,0.104
				c-1.064-1.723-1.426-3.745-1.583-5.734C10.01,12.354,9.979,11.741,9.947,11.13"/>
		</g>
	</g>
</g>
</svg>
