<?xml version="1.0" encoding="utf-8"?>
<!-- Generator: Adobe Illustrator 13.0.0, SVG Export Plug-In . SVG Version: 6.00 Build 14948)  -->
<!DOCTYPE svg PUBLIC "-//W3C//DTD SVG 1.1//EN" "http://www.w3.org/Graphics/SVG/1.1/DTD/svg11.dtd">
<svg version="1.1" id="圖層_1" xmlns="http://www.w3.org/2000/svg" xmlns:xlink="http://www.w3.org/1999/xlink" x="0px" y="0px"
	 width="25px" height="25px" viewBox="0 0 25 25" enable-background="new 0 0 25 25" xml:space="preserve">
<path fill="#005E96" d="M13.703,21.849c-0.149-0.218-0.296-0.417-0.428-0.624c-0.769-1.201-1.551-2.395-2.297-3.611
	c-0.75-1.223-1.428-2.486-2.028-3.789c-0.413-0.899-0.777-1.816-1.037-2.773C7.603,9.896,7.648,8.762,8.039,7.638
	c0.378-1.088,1.024-1.99,1.924-2.712c0.793-0.634,1.688-1.045,2.691-1.218c1.237-0.214,2.432-0.074,3.569,0.457
	c1.265,0.588,2.217,1.51,2.85,2.756c0.45,0.89,0.664,1.843,0.634,2.843c-0.018,0.577-0.152,1.133-0.319,1.683
	c-0.326,1.089-0.779,2.129-1.295,3.141c-0.38,0.743-0.773,1.482-1.182,2.209c-0.656,1.173-1.365,2.311-2.105,3.43
	c-0.349,0.522-0.702,1.042-1.055,1.562C13.738,21.802,13.728,21.816,13.703,21.849 M16.75,9.76
	c-0.021-1.719-1.387-3.069-3.083-3.045c-1.689,0.023-3.034,1.42-3.003,3.088c0.03,1.669,1.387,3.01,3.065,2.997
	C15.441,12.785,16.748,11.396,16.75,9.76"/>
<g id="圖層_2">
	<rect fill="none" width="25" height="25"/>
</g>
</svg>
