<?xml version="1.0" encoding="utf-8"?>
<!-- Generator: Adobe Illustrator 24.0.0, SVG Export Plug-In . SVG Version: 6.00 Build 0)  -->
<svg version="1.1" id="圖層_1" xmlns="http://www.w3.org/2000/svg" xmlns:xlink="http://www.w3.org/1999/xlink" x="0px" y="0px"
	 viewBox="0 0 24 28" style="enable-background:new 0 0 24 28;" xml:space="preserve">
<style type="text/css">
	.st0{fill:#FFFFFF;}
</style>
<title>instagram</title>
<path class="st0" d="M16,14c0-2.2-1.8-4-4-4s-4,1.8-4,4s1.8,4,4,4S16,16.2,16,14z M18.2,14c0,3.4-2.8,6.2-6.2,6.2S5.8,17.4,5.8,14
	S8.6,7.8,12,7.8S18.2,10.6,18.2,14z M19.8,7.6c0,0.8-0.6,1.4-1.4,1.4S17,8.4,17,7.6s0.6-1.4,1.4-1.4S19.8,6.8,19.8,7.6z M12,4.2
	c-1.8,0-5.5-0.1-7.1,0.5C4.4,4.9,4,5.1,3.5,5.5S2.9,6.4,2.6,6.9C2,8.5,2.2,12.2,2.2,14S2,19.5,2.6,21.1c0.2,0.5,0.5,1,0.9,1.4
	s0.8,0.7,1.4,0.9c1.6,0.6,5.3,0.5,7.1,0.5s5.5,0.1,7.1-0.5c0.5-0.2,1-0.5,1.4-0.9s0.7-0.8,0.9-1.4c0.6-1.6,0.5-5.3,0.5-7.1
	s0.1-5.5-0.5-7.1c-0.2-0.5-0.5-1-0.9-1.4s-0.8-0.7-1.4-0.9C17.5,4,13.7,4.2,12,4.2z M24,14c0,1.7,0,3.3-0.1,5
	c-0.1,1.9-0.5,3.6-1.9,5s-3.1,1.8-5,1.9C15.3,26,13.7,26,12,26s-3.3,0-5-0.1c-1.9-0.1-3.6-0.5-5-1.9s-1.8-3.1-1.9-5
	C0,17.3,0,15.7,0,14s0-3.3,0.1-5C0.2,7.1,0.6,5.4,2,4s3.1-1.8,5-1.9C8.7,2,10.3,2,12,2s3.3,0,5,0.1c1.9,0.1,3.6,0.5,5,1.9
	s1.8,3.1,1.9,5C24,10.7,24,12.3,24,14z"/>
</svg>
