<?xml version="1.0" encoding="iso-8859-1"?>
<!-- Generator: Adobe Illustrator 16.0.0, SVG Export Plug-In . SVG Version: 6.00 Build 0)  -->
<!DOCTYPE svg PUBLIC "-//W3C//DTD SVG 1.1//EN" "http://www.w3.org/Graphics/SVG/1.1/DTD/svg11.dtd">
<svg version="1.1" id="&#x5716;&#x5C64;_1" xmlns="http://www.w3.org/2000/svg" xmlns:xlink="http://www.w3.org/1999/xlink" x="0px"
	 y="0px" width="138.718px" height="37.808px" viewBox="0 0 138.718 37.808" style="enable-background:new 0 0 138.718 37.808;"
	 xml:space="preserve">
<g>
	<g>
		<g>
			<g>
				<path style="fill:#ffffff;" d="M44.106,14.013c0.898-1.238,1.501-2.682,1.75-4.184l0.373-0.055
					c0.175,0.729,0.264,1.484,0.264,2.242c0,1.133-0.196,2.238-0.583,3.295L44.106,14.013z"/>
				<path style="fill:#ffffff;" d="M44.681,25.755c0.978-1.393,1.734-3.346,2.137-5.525c0.997-5.377,0.812-10.916,0.689-14.58
					c-0.015-0.412-0.027-0.797-0.037-1.15h2.521c0.016,1.557,0.027,4.891,0.017,6.494l-0.005,0.49l0.296-0.391
					c0.518-0.682,0.932-1.426,1.232-2.211l0.552,0.396h4.699V7.093h-3.898V6.565h3.898V4.265h2.46v2.301h4.406v0.527h-4.406v2.186
					h5.988v0.529H52.815l-0.049,0.068c-0.646,0.924-1.591,1.607-2.661,1.926l-0.113,0.033l-0.004,0.119
					c-0.065,2.402-0.178,4.238-0.533,5.973l-0.02,0.094l0.074,0.063c1.487,1.258,2.325,2.67,2.624,4.439l-2.33,0.707
					c0.051-0.41,0.077-0.83,0.077-1.246c0-0.957-0.139-1.91-0.416-2.836l-0.159-0.535l-0.187,0.652
					c-0.047,0.168-0.096,0.336-0.149,0.502c-1.2,3.697-3.284,5.613-4.097,6.121L44.681,25.755z"/>
				<path style="fill:#ffffff;" d="M51.562,15.616c0.452,0.023,0.881,0.037,1.304,0.037c0.117,0,0.233-0.004,0.349-0.008
					l0.367-0.014v-2.063h-2.11V13.04h2.11v-2.271h2.31v2.271h4.091v-2.271h2.312v2.271h2.937v0.529h-2.937v2.736h3.262v0.529h-7.711
					v-0.529h2.138v-2.736h-4.091v1.887l0.184-0.023c0.798-0.105,1.522-0.232,2.209-0.389l0.127,0.293
					c-1.828,1.166-3.837,1.938-5.973,2.293L51.562,15.616z"/>
				<path style="fill:#ffffff;" d="M50.967,25.747c-0.287,0-0.579-0.021-0.869-0.061l-0.041-0.094
					c2.838-0.818,4.735-3.244,4.854-6.236l0.006-0.168h-3.388v-0.529h14.026v0.529h-4.122v4.102c0,0.488,0.398,0.887,0.887,0.887
					h1.419c0.692,0,0.943-0.512,0.953-0.533l0.274-0.566h0.507l-0.781,1.854c-0.015,0.033-0.352,0.813-1.19,0.813h-3.339
					c-0.702,0-1.272-0.57-1.272-1.271v-5.283h-1.454l-0.002,0.16C57.396,22.995,54.615,25.747,50.967,25.747z"/>
			</g>
			<g>
				<rect x="98.313" y="9.278" style="fill:#ffffff;" width="10.366" height="0.529"/>
				<path style="fill:#ffffff;" d="M98.614,12.856h9.763v9.186l-2.577,0.438v-1.326h-4.606v1.6l-2.579,0.436V12.856z
					 M101.193,20.624h4.606v-7.24h-4.606V20.624z"/>
				<path style="fill:#ffffff;" d="M108.029,25.896l-0.232-0.549h1.652c0.486,0,0.881-0.396,0.881-0.883V6.233H96.662v19.662h-2.637
					V5.704h18.94v18.918c0,0.701-0.569,1.273-1.271,1.273H108.029z"/>
			</g>
			<path style="fill:#ffffff;" d="M84.318,25.896l-0.232-0.549h1.652c0.485,0,0.881-0.396,0.881-0.883V8.095h-5.747l-0.027,0.129
				c-0.155,0.723-0.371,1.424-0.644,2.086l-0.089,0.219l0.235,0.006c2.261,0.061,4.367,1.092,5.406,2.637l-2.067,2.203
				c-0.725-1.756-2.004-3.283-3.622-4.32l-0.151-0.096l-0.082,0.158c-0.434,0.859-0.959,1.625-1.56,2.283l-0.063,0.066l-0.295,0.291
				c-1.114,1.096-2.456,1.893-3.989,2.367l-0.162-0.385c2.221-1.98,3.727-4.551,4.361-7.447l0.043-0.197h-5.216v17.801h-2.636V7.565
				h7.945l0.021-0.137c0.111-0.717,0.167-1.439,0.167-2.149c0-0.329-0.012-0.671-0.037-1.015h2.691
				c0.031,0.35,0.048,0.702,0.048,1.047c0,0.676-0.054,1.371-0.156,2.068l-0.026,0.186h8.288v17.057
				c0,0.701-0.571,1.273-1.272,1.273H84.318z M73.872,22.386c2.499-2.174,4.032-5.189,4.318-8.498l0.021-0.244l2.744,0.475
				c-0.102,0.688-0.27,1.367-0.501,2.021l-0.063,0.18l0.188,0.035c2.137,0.379,4.059,1.686,4.932,3.342l-2.082,2.221
				c-0.591-1.893-1.617-3.656-2.981-5.117l-0.169-0.184l-0.1,0.227c-1.173,2.703-3.42,4.828-6.179,5.848L73.872,22.386z"/>
			<g>
				<path style="fill:#ffffff;" d="M117.197,9.274V8.62h3.901l-0.039-0.195c-0.271-1.369-0.864-2.601-1.81-3.764l0.663-0.383
					c1.351,0.41,2.906,1.445,3.943,2.619l-2.663,1.723h5.313v0.654H117.197z"/>
				<path style="fill:#ffffff;" d="M127.42,16.804h3.639V12.44h-4.519v-0.658h4.519V7.995l-0.176,0.016
					c-0.781,0.061-1.446,0.09-2.033,0.09c-0.607,0-1.24-0.021-1.882-0.066l-0.121-0.287c3.268-0.574,5.982-1.395,8.524-3.432
					l2.681,2.408c-1.194,0.361-2.688,0.691-4.242,0.939l-0.138,0.021v4.098h5.046v0.658h-5.046v4.363h3.866v8.643l-2.613,0.441
					v-1.83h-4.894v1.516l-2.611,0.443V16.804z M130.031,23.528h4.894v-6.199h-4.894V23.528z"/>
				<rect x="118.099" y="11.782" style="fill:#ffffff;" width="7.507" height="0.658"/>
				<rect x="118.099" y="14.944" style="fill:#ffffff;" width="7.507" height="0.658"/>
				<path style="fill:#ffffff;" d="M118.099,18.067h7.507v7.066l-2.464,0.414v-1.49h-2.578v1.551l-2.465,0.416V18.067z
					 M120.563,23.528h2.578v-4.932h-2.578V23.528z"/>
			</g>
		</g>
		<g>
			<polygon style="fill:#ffffff;" points="72.794,34.267 72.794,29.528 71.607,29.528 71.607,29.269 74.846,29.269 74.846,29.528
				73.659,29.528 73.659,34.267 			"/>
			<path style="fill:#ffffff;" d="M47.492,34.388c-1.444,0-2.619-1.176-2.619-2.619s1.175-2.619,2.619-2.619
				c0.78,0,1.509,0.344,2.01,0.943l-0.14,0.143c-0.393-0.365-0.898-0.566-1.436-0.566c-1.156,0-2.098,0.941-2.098,2.1
				s0.941,2.1,2.098,2.1c0.537,0,1.043-0.199,1.436-0.566l0.14,0.143C49.001,34.044,48.272,34.388,47.492,34.388z"/>
			<polygon style="fill:#ffffff;" points="54.206,34.267 54.206,31.899 51.846,31.899 51.846,34.267 50.979,34.267 50.979,29.269
				51.846,29.269 51.846,31.64 54.206,31.64 54.206,29.269 55.071,29.269 55.071,34.267 			"/>
			<polygon style="fill:#ffffff;" points="79.549,34.267 79.549,31.899 77.188,31.899 77.188,34.267 76.323,34.267 76.323,29.269
				77.188,29.269 77.188,31.64 79.549,31.64 79.549,29.269 80.415,29.269 80.415,34.267 			"/>
			<path style="fill:#ffffff;" d="M59.305,34.267l-0.363-0.936h-2.242l-0.361,0.936h-0.281l1.935-4.998h0.318l1.935,4.998H59.305z
				 M56.801,33.073h2.041l-1.021-2.637L56.801,33.073z"/>
			<path style="fill:#ffffff;" d="M89.183,34.267l-0.839-2.166h-0.837v2.166h-0.866v-4.998h2.101c0.78,0,1.415,0.637,1.415,1.416
				c0,0.561-0.332,1.068-0.847,1.297l-0.063,0.025l0.876,2.26H89.183z M87.507,31.841h0.636c0.638,0,1.157-0.52,1.157-1.156
				s-0.52-1.156-1.157-1.156h-0.636V31.841z"/>
			<path style="fill:#ffffff;" d="M63.354,34.388c-1.443,0-2.618-1.176-2.618-2.619s1.175-2.619,2.618-2.619
				c0.782,0,1.51,0.344,2.011,0.943l-0.141,0.143c-0.392-0.365-0.897-0.566-1.434-0.566c-1.158,0-2.099,0.941-2.099,2.1
				s0.94,2.1,2.099,2.1c0.147,0,0.3-0.02,0.452-0.053c0.173-0.033,0.272-0.15,0.272-0.324v-1.391h-0.649v-0.26h1.515v1.584
				c-0.26,0.318-0.593,0.572-0.967,0.738C64.078,34.312,63.722,34.388,63.354,34.388z"/>
			<polygon style="fill:#ffffff;" points="81.893,34.267 81.893,29.269 85.164,29.269 85.164,29.528 82.757,29.528 82.757,31.64
				85.164,31.64 85.164,31.899 82.757,31.899 82.757,34.009 85.164,34.009 85.164,34.267 			"/>
			<polygon style="fill:#ffffff;" points="70.13,29.528 70.13,29.269 66.857,29.269 66.857,34.267 70.13,34.267 70.13,34.009
				67.723,34.009 67.723,31.899 70.13,31.899 70.13,31.64 67.723,31.64 67.723,29.528 			"/>
			<path style="fill:#ffffff;" d="M93.847,29.271h0.574l1.28,2.061l1.258-2.061h0.579l-1.584,2.609v2.387h-0.493V31.88
				L93.847,29.271z"/>
			<path style="fill:#ffffff;" d="M100.215,29.271l2.331,4.996h-0.54l-0.786-1.645h-2.153l-0.778,1.645H97.73l2.362-4.996H100.215z
				 M100.151,30.331l-0.856,1.809h1.71L100.151,30.331z"/>
			<path style="fill:#ffffff;" d="M103.645,29.271h0.509v1.875l1.998-1.875h0.67l-2.399,2.242l2.588,2.754h-0.666l-2.19-2.328v2.328
				h-0.509V29.271z"/>
			<path style="fill:#ffffff;" d="M108.107,29.271h0.5v4.996h-0.5V29.271z"/>
			<path style="fill:#ffffff;" d="M115.49,29.271h0.499v4.996h-0.499V29.271z"/>
			<path style="fill:#ffffff;" d="M110.086,34.267v-4.996h0.107l3.326,3.828v-3.828h0.494v4.996H113.9l-3.299-3.783v3.783H110.086z"
				/>
			<path style="fill:#ffffff;" d="M117.467,29.271h0.51v1.875l1.999-1.875h0.672l-2.401,2.242l2.587,2.754h-0.665l-2.191-2.328
				v2.328h-0.51V29.271z"/>
			<path style="fill:#ffffff;" d="M121.932,29.271h0.5v3.018c0,0.355,0.007,0.58,0.021,0.668c0.025,0.197,0.083,0.361,0.172,0.494
				c0.092,0.135,0.231,0.242,0.419,0.332c0.188,0.092,0.377,0.137,0.567,0.137c0.165,0,0.324-0.037,0.476-0.107
				c0.152-0.068,0.278-0.166,0.38-0.291c0.103-0.125,0.178-0.275,0.226-0.453c0.033-0.125,0.051-0.387,0.051-0.779v-3.018h0.499
				v3.018c0,0.443-0.043,0.805-0.131,1.082c-0.087,0.275-0.261,0.512-0.523,0.719c-0.261,0.203-0.578,0.305-0.949,0.305
				c-0.403,0-0.75-0.098-1.037-0.287c-0.287-0.193-0.479-0.449-0.577-0.766c-0.062-0.195-0.092-0.547-0.092-1.053V29.271z"/>
		</g>
	</g>
	<g>
		<rect x="12.503" y="4.765" style="fill:#ffffff;" width="12.8" height="1.488"/>
		<path style="fill:#ffffff;" d="M25.303,8.337h-12.8v6.846h12.8V8.337z M13.991,13.694V9.825h9.823v3.869H13.991z"/>
		<path style="fill:#ffffff;" d="M29.535,3.274c-0.831-0.568-1.718-1.072-2.635-1.502C24.388,0.597,21.696,0,18.902,0
			c-2.793,0-5.484,0.597-7.998,1.772C9.989,2.2,9.104,2.706,8.271,3.274C3.092,6.804,0,12.646,0,18.903s3.092,12.1,8.271,15.631
			c0.833,0.568,1.719,1.072,2.634,1.5c2.515,1.176,5.206,1.773,7.998,1.773c2.793,0,5.484-0.598,7.998-1.773
			c0.916-0.428,1.802-0.932,2.635-1.5c5.179-3.529,8.27-9.373,8.27-15.631S34.714,6.804,29.535,3.274z M16.67,31.257v4.918
			l-0.169-0.023c-1.854-0.256-3.643-0.807-5.317-1.635c-0.45-0.225-0.884-0.461-1.288-0.707l-0.072-0.043v-2.51H16.67z
			 M8.335,29.769v2.98l-0.241-0.191c-4.507-3.572-6.605-7.912-6.605-13.654c0-5.35,2.408-10.326,6.605-13.653l0.241-0.19v15.48
			h9.824v-1.488h-4.168v-1.785h-1.488v1.785h-2.68V4.04l0.072-0.043c0.412-0.249,0.846-0.486,1.288-0.707
			c2.411-1.193,5.009-1.801,7.719-1.801c2.711,0,5.308,0.607,7.72,1.801c0.442,0.221,0.876,0.458,1.288,0.707l0.072,0.043v12.607
			c0,1.326-1.079,2.404-2.404,2.404h-5.931v1.488h4.167v3.871h-4.167v1.488h4.167v3.869h-4.167v6.533l-0.145,0.006
			c-0.164,0.004-0.38,0.012-0.601,0.012c-0.22,0-0.436-0.008-0.6-0.012l-0.144-0.006v-6.533H8.335z M21.304,36.151l-0.168,0.023
			v-4.918h6.847v2.51L27.91,33.81c-0.408,0.248-0.842,0.486-1.288,0.707C24.947,35.345,23.158,35.896,21.304,36.151z M25.303,29.769
			v-3.869h4.168v-1.488h-4.168l0.001-3.871h0.148c2.216,0,4.019-1.803,4.019-4.018V5.06l0.241,0.19
			c4.197,3.327,6.604,8.304,6.604,13.653s-2.407,10.326-6.604,13.654l-0.241,0.191v-2.98H25.303z"/>
		<rect x="8.335" y="22.624" style="fill:#ffffff;" width="9.824" height="1.49"/>
		<rect x="8.335" y="26.196" style="fill:#ffffff;" width="9.824" height="1.488"/>
	</g>
</g>
</svg>
