<?xml version="1.0" encoding="utf-8"?>
<!-- Generator: Adobe Illustrator 26.5.0, SVG Export Plug-In . SVG Version: 6.00 Build 0)  -->
<svg version="1.1" id="圖層_1" xmlns="http://www.w3.org/2000/svg" xmlns:xlink="http://www.w3.org/1999/xlink" x="0px" y="0px"
	 viewBox="0 0 24 24" style="enable-background:new 0 0 24 24;" xml:space="preserve">
<style type="text/css">
	.st0{fill:none;stroke:#FFFFFF;stroke-width:1.183;stroke-miterlimit:10;}
</style>
<path class="st0" d="M12,13.3c1.3,0,2.7,0.3,4.2,0.9c1.4,0.6,2.1,1.3,2.1,2.3V18H5.7v-1.6c0-0.9,0.7-1.7,2.1-2.3
	C9.2,13.6,10.7,13.3,12,13.3L12,13.3z M12,11.7c-0.9,0-1.6-0.3-2.2-0.9c-0.6-0.6-0.9-1.3-0.9-2.2S9.2,7,9.8,6.4
	c0.6-0.6,1.3-0.9,2.2-0.9s1.6,0.3,2.2,0.9c0.6,0.6,0.9,1.3,0.9,2.2s-0.3,1.6-0.9,2.2C13.6,11.4,12.9,11.7,12,11.7z"/>
<circle class="st0" cx="12" cy="12" r="11"/>
</svg>
